<?xml version="1.0" encoding="utf-8" standalone="no"?>
<!DOCTYPE svg PUBLIC "-//W3C//DTD SVG 1.1//EN"
  "http://www.w3.org/Graphics/SVG/1.1/DTD/svg11.dtd">
<svg xmlns:xlink="http://www.w3.org/1999/xlink" width="223.2pt" height="221.76pt" viewBox="0 0 223.2 221.76" xmlns="http://www.w3.org/2000/svg" version="1.1">
 <metadata>
  <rdf:RDF xmlns:dc="http://purl.org/dc/elements/1.1/" xmlns:cc="http://creativecommons.org/ns#" xmlns:rdf="http://www.w3.org/1999/02/22-rdf-syntax-ns#">
   <cc:Work>
    <dc:type rdf:resource="http://purl.org/dc/dcmitype/StillImage"/>
    <dc:date>2025-11-02T02:02:05.224441</dc:date>
    <dc:format>image/svg+xml</dc:format>
    <dc:creator>
     <cc:Agent>
      <dc:title>Matplotlib v3.10.0, https://matplotlib.org/</dc:title>
     </cc:Agent>
    </dc:creator>
   </cc:Work>
  </rdf:RDF>
 </metadata>
 <defs>
  <style type="text/css">*{stroke-linejoin: round; stroke-linecap: butt}</style>
 </defs>
 <g id="figure_1">
  <g id="patch_1">
   <path d="M 0 221.76 
L 223.2 221.76 
L 223.2 0 
L 0 0 
L 0 221.76 
z
" style="fill: none; opacity: 0"/>
  </g>
  <g id="axes_1">
   <g id="patch_2">
    <path d="M 0 221.76 
L 223.2 221.76 
L 223.2 -0 
L 0 -0 
L 0 221.76 
z
" style="fill: none; opacity: 0"/>
   </g>
   <g id="patch_3">
    <path d="M 10.145455 221.76 
L 70.662201 221.76 
L 70.662201 116.16 
L 10.145455 116.16 
z
" clip-path="url(#pf06b8a8888)" style="fill: #b0b0b0; stroke: #b0b0b0; stroke-width: 0.6; stroke-linejoin: miter"/>
   </g>
   <g id="patch_4">
    <path d="M 81.341627 221.76 
L 141.858373 221.76 
L 141.858373 63.36 
L 81.341627 63.36 
z
" clip-path="url(#pf06b8a8888)" style="fill: #4f81bd; stroke: #4f81bd; stroke-width: 0.6; stroke-linejoin: miter"/>
   </g>
   <g id="patch_5">
    <path d="M 152.537799 221.76 
L 213.054545 221.76 
L 213.054545 10.56 
L 152.537799 10.56 
z
" clip-path="url(#pf06b8a8888)" style="fill: #1f497d; stroke: #1f497d; stroke-width: 0.6; stroke-linejoin: miter"/>
   </g>
   <g id="matplotlib.axis_1"/>
   <g id="matplotlib.axis_2"/>
  </g>
 </g>
 <defs>
  <clipPath id="pf06b8a8888">
   <path d="M 111.6 221.76 
C 141.196666 221.76 169.585114 210.076984 190.513117 189.284 
C 211.44112 168.491016 223.2 140.28572 223.2 110.88 
C 223.2 81.47428 211.44112 53.268984 190.513117 32.476 
C 169.585114 11.683016 141.196666 -0 111.6 -0 
C 82.003334 -0 53.614886 11.683016 32.686883 32.476 
C 11.75888 53.268984 0 81.47428 0 110.88 
C 0 140.28572 11.75888 168.491016 32.686883 189.284 
C 53.614886 210.076984 82.003334 221.76 111.6 221.76 
z
"/>
  </clipPath>
 </defs>
</svg>
